<?xml version="1.0" encoding="utf-8"?>
<!-- Svg Vector Icons : http://www.onlinewebfonts.com/icon -->
<svg version="1.1" xmlns="http://www.w3.org/2000/svg" xmlns:xlink="http://www.w3.org/1999/xlink" x="0px" y="0px" viewBox="0 0 1000 1000" enable-background="new 0 0 1000 1000" xml:space="preserve">
<metadata> Svg Vector Icons : http://www.onlinewebfonts.com/icon </metadata>
<g>
<path d="M509.2,210c2.1,0,4,0,6.1,0c0,1.3,0,2.7,0,4c4.6,0.5,5.6-2.5,8.2-4c11.8,3.6,14.7,3.8,29.5,4c0,3.1,0,6.1,0,9.1c3.9,0.4,0.4-6.4,6.1-4c0.1,2.9-3.4,2-2.1,6.1c-7.7,1.2-9.4-3.5-17.3-2.1c-0.8-3.9,4.8-1.3,7.2-2.1c0-1,0-2.1,0-3.1c-3.5-2.7-10.7-0.5-9.2,5.1c-2.9-3.6-13.1,0.3-15.2-4c-2.7,4.8-7-0.3-11.2,0C509.6,212.8,511.7,214.9,509.2,210L509.2,210z"/>
<path d="M670.3,274.3c3.6,1.2,6.5,3,12.2,2.1c-0.4,3-4.2,2.6-3,7.2c-1.4-5.1-9.6-3.3-13.3-6.1C665.9,274.5,672,278.2,670.3,274.3L670.3,274.3z"/>
<path d="M695.8,298.7c2.1,0,4,0,6.1,0c-0.4,1.7,0.8,2,2.1,2.1c-2.2,1.4-3,4.6-6.1,5.1C697.5,303.2,694.5,303,695.8,298.7L695.8,298.7z"/>
<path d="M705.9,301.7c0.9-0.1,0.9,0.4,1,1c-0.4,2.7,5.7-0.9,4,3.1c-4.6-1.6-3.1,3-7.2,2.1C702.5,303.7,706.2,304.6,705.9,301.7L705.9,301.7z"/>
<path d="M660.1,401.7c-1.4,4.2,2.2,3.3,2.1,6.1c-1.7,0-3.4,0-5.1,0C657,404.8,656.9,401.5,660.1,401.7z"/>
<path d="M223.8,428.1c0,2.7,0,5.5,0,8.2c-4.2,0.5-7.7,1.8-11.2,3.1C215.9,435.1,216.4,428.2,223.8,428.1z"/>
<path d="M451.1,569.8c0,3.8-4.6,3-8.2,3C441.9,572,449.2,570.9,451.1,569.8z"/>
<path d="M500.1,621.8c3.9-0.5,5.3,1.4,6.1,4C502.3,626.4,500.7,624.4,500.1,621.8z"/>
<path d="M481.7,859.3c3.1-1,1.8,2.2,2.1,4c-1.3,0-2.7,0-4,0C478.5,860.1,483,862.5,481.7,859.3L481.7,859.3z"/>
<path d="M155.5,343.5c2.2-0.5,1.4,2,3.1,2.1c2.1-1.6,1.4-8.8-1-9.1c4.2-7.4,7.3-15.7,11.2-23.4c2.7,0,5.5,0,8.2,0c-0.8,3.8,1.7,4.4,1,8.2c4.7-0.5,1-7.8-1-8.2c0.7-4.2,2.6-6.9,3-11.2c-4.2-1.2,0.1,6.2-5.1,4c2.7-2.1,1.7-6.8,3.1-9.1c0.3-0.4,3.6-1,4-2.1c1.8-3.9,1.3-2.9,4-6.1c2.1-2.3,1.7-7.4,3-9.1c1.2-1.4,4.8-1.4,6.1-3.1c0.7-0.8-0.5-3.1,0-4c0.7-1.4,4.9-2.5,6.1-4c3.4-4.8-2.3-1.6,2.1-2.1c2.5-0.3-0.1-7,1-5.1c3.4-1,1.6,3.1,2.1,5.1c3.3,1.3,0.8-3.3,4-2.1c-0.9-2.1-4-2.1-4-5.1c37.7-41.9,80.2-78.9,136.6-101.9c1.6-1.2,2.5-3,4-4c4.6-1.4,0,6.1,3,6.1c2.2-0.1,0.4-4.3,1-6.1c3,0,8.1-6.9,10.1-1c3-0.6-1-2.2,0-4c8.1-3.5,18.1-5.1,25.5-9.1c3.3-1.3,0.8,3.3,4,2.1c7.8-4.4,23.9-11.2,32.7-8.2c0.8-1.6,3.3-1.6,3.1-4c15.5,1.2,24.6-4,39.8-3.1c1.2,3.3-1.6,2.5-2.1,4c0.1,2.2,4.3,0.4,6.1,1c-3.6-3.9,1-2.9,2.1-7.2c9.9,1.3,25.1-2.6,31.6,2.1c5.5-2.6,5.5-0.3,13.3-2.1c2.6,8.5,11.2-0.8,20.4,2.1c0,2.3,0,4.8,0,7.2c4,0.4,6.1-1.4,6.1-5.1c4.2,0.5,10.3-0.8,9.2,5.1c3.1,1,1.8-2.2,2.1-4c17.3,1.7,31.5,6.6,46.8,10.1c1.4,3.9-2.9,2-2.1,5.1c-3.6,1.6-0.7-3.5-3.1-3.1c-0.5,3.3-5.3,2.2-4,7.2c3.8-2,8.6-3,13.3-4c0.4-1.7-0.8-2-2.1-2.1c11.3-3.9,17.8,6,28.5,6.1c0,1.3,0,2.7,0,4c3.9,1.4,2-2.9,5.1-2.1c23.8,10.9,45.9,23.4,68.3,35.7c-0.1,1.8,1.3,2.2,1,4c7.3-1.4,5.6,6,12.2,5.1c-0.1,7.4,0.8,15.7-2.1,20.4c-3,0-6.2,0.1-6.1-3c2.2-0.5,1.4,2,3.1,2.1c1.7-1,0.8-4.7,3-5.1c-2-2.9-6.1,0.7-6.1,3.1c-27.2-18-54-36.4-88.6-46.8c0-1.3,0-2.7,0-4c-3.1-0.8-1.2,3.5-5.1,2.1c0.4-1.7-0.8-2-2.1-2.1c-0.5-2.2,2-1.4,2.1-3.1c-0.1-1.2-1.8-0.9-3-1c-2.7-0.4,0.9,5.7-3.1,4c0.3-3.8,1.4-6.8,4-8.2c-1.2-1.2-2.9-1.8-2.1-5.1c-1.3,0-2.7,0-4,0c3.9,4.2-1.6,5.3,2.1,9.2c-2.2-0.5-1.4,2-3.1,2.1c-7.3-2.9-14.3-6.1-23.4-7.2c0.3-2.6,0.4-5.1-3-4c-1.3-3.3,3.3-0.8,2.1-4c-3.3-1.3-0.8,3.3-4,2.1c-0.1,2.9,3.5,2,2.1,6.1c-2.3-1.7-5.5-2.6-10.1-2.1c0-2.1,0-4,0-6.1c-1.3,7.7-15.7,3.4-18.3,0c-4.8,3.8-13-2.1-22.4,0c0.8-3.1-3.5-1.2-2.1-5.1c-2.2-0.5-2,1.4-2.1,3.1c-33.6-2.6-69,3.6-94.7,2.1c-3.8,1.6,2.3,1.6,1,4c-40.7,3.5-67.7,20.7-101,31.6c-12,12.9-33.4,16.1-43.9,30.6c-6.5-1-4.8,6-11.2,5.1c-1.6,3.1-4.8,4.7-6.1,8.2c-7.9,2.6-13.8,11.3-21.5,16.3c-6.5,4.3-12,11.3-14.3,17.3c-1.3,0-2.7,0-4,0c-1.2,9.8-12.2,9.5-13.3,19.4c-1.7,0-3.4,0-5.1,0c0,2.3,0,4.8,0,7.2c-16.4,15.5-26.8,37.1-37.7,58.2c-2.2,0.5-1.4-2-3-2.1c-2.7-0.4,0.9,5.7-3.1,4c-1.3,3.3,3.3,0.8,2.1,4c-4.2,1.4-3.3-2.2-6.1-2.1c-0.1-2.9,3.4-2,2.1-6.1c4.2,1.4,3.3-2.2,6.1-2.1c-1-1-2-2.1-3-3c-2.5-0.4,0.5,4.7-3.1,3c1.4-3.9-2.9-2-2.1-5.1c-2.9,2,2,4.8,2.1,7.2c-5.3,0.1-2.7,8.2-6.1,10.1C156.3,350.2,157.6,345.2,155.5,343.5L155.5,343.5z M297.2,194.8c-3.1,0.7-4.7,2.9-4,7.2C297.2,202.2,297.7,198.9,297.2,194.8z M483.7,134.5c3.8,2.2,4.6-5.2,1-4C485,132.4,483.6,132.7,483.7,134.5z M460.3,140.6c2.7-0.8,4.6-2.2,4-6.1C461.4,134.9,462.1,139.1,460.3,140.6z M577.5,147.8c0-2.1,0-4,0-6.1c-2,0.3-2.2-1.2-4-1C574.4,143.6,574.8,146.9,577.5,147.8L577.5,147.8z M608.1,152.9c0.7-4.3-1-6.5-4-7.2C603.5,150,604,153.2,608.1,152.9z M619.3,157c1,0,2.1,0,3,0c-0.4-2.6-3.1-3-5.1-4C616,156.2,620.6,153.6,619.3,157z M639.7,163.1c1.3,0,2.7,0,4,0c-0.3-1.8,1-5.1-2.1-4C643.1,162.4,638.4,159.8,639.7,163.1L639.7,163.1z M651.9,166.1c2.1-0.7,3.9-1.6,3-5.1C652.6,160.8,651.4,166.8,651.9,166.1z M655,166.1c-0.4,3.1,2.7,8.1,3.1,7.2c-2.1-3,0.9-10.5-1-9.2C656.9,165.3,656.7,166.5,655,166.1z M223.8,262.9c-2.1,0-4,0-6.1,0C216.9,269.1,223.3,264.9,223.8,262.9z M170.9,323.2c2.1,0,4,0,6.1,0c0-1.3,0-2.7,0-4c-3.3-1.3-0.8,3.3-4,2.1c-0.1-1.2-0.3-2.3-2.1-2.1C170.9,320.5,170.9,321.8,170.9,323.2z"/>
<path d="M784.4,258.9c-1.6,0.1-3.9-0.5-4,1c2,3.5,4-1.3,6.1-1c0.1,3,3.1,3,4,5.1c0.5,2.2-2,1.4-2.1,3c1.6,3.8,1.6-2.3,4-1c2.5,4.3,4.2,9.5,9.1,11.2c0,1.7,0,3.4,0,5.1c0.3,1.4,2.6,0.8,4,1c-0.1,3.5,2.5,4.3,3,7.2c20.6-1.6,36-8.2,53-13.3c-0.9,3.9,1.7,4.4,3.1,6.1c3.3-1.7-3.1-2.2-1-6.1c22.4-4.4,40.9-12.8,64.2-16.3c-0.7,8.3,4.6,13.9,1,19.4c0.3,1.4,2.6,0.8,4,1c-0.8,13.1,9.9,25.2,6.1,34.6c5.9,5.7,6,17,9.2,25.5c-2.9,0.1-2-3.4-6.1-2.1c9.4,4.6,12.5,17.3,10.1,30.6c3,0-1.4-7.5,3.1-6.1c-1.4,10.9,8.5,20.2,4,27.5c10.1,12.4,7.7,37.1,17.3,50c1,21.7,9.8,35.8,13.3,55c-39.9,10.4-79.9,20.7-119.3,31.6c0.1,3.5,0.5,7.3-2.1,8.2c5.5,5.6-2.6,13.1,0,22.4c-4.7,11.7-3.4,25.5-7.2,37.7c-0.5,1.8-3.6,3.3-4,5.1c-1.7,6.5-1.2,12.8-3,19.4c-0.3,1-3.6,3.5-4,5.1c-0.7,2.5,0.5,4.8,0,6.1c-0.5,1.3-3.4,1.6-4,3.1c-0.8,1.8,0.7,4.2,0,6.1c-0.5,1.6-3.5,2.6-4,4c-1.2,2.9,0,6.5-1,9.2c-0.7,1.6-3.1,1.6-4,3c-3.3,5.3-4.3,13.7-7.2,19.4c-1.2,2.3-4.8,4.6-6.1,7.2c-0.5,1,0.6,3.1,0,4c-0.7,1.2-3.4,0.9-4,2.1c-2.5,3.8-2.6,9.5-5.1,13.3c-2,2.7-6.2,4.2-8.2,7.2c-1.7,2.5-0.9,6.4-3,9.1c-1.4,2-4.8,2.2-6.1,4c-3.8,5.7-6,14.4-13.3,17.3c0-1.3,0-2.7,0-4c-2.6-0.1-2.5,2.3-4,3c0.3,1.4,2.6,0.9,4,1c-11.3,18.5-30.3,29.5-42.8,46.8c-4,1.7-0.4-4.4-3.1-4c-2.2,0.1-0.4,4.3-1,6.1c-3.3,1.3-0.8-3.3-4-2.1c-1.3,3.3,3.3,0.8,2.1,4c-13.1,8.3-24.3,18.5-37.7,26.5c-3.1,1-1.8-2.2-2.1-4c-2.9,2.2,1,4.7-1,7.2c-26.8,12.9-50.4,29.1-83.5,35.7c0-1.7,0-3.4,0-5.1c-5.5,1.2-1,4.4,0,7.2c-5.3-0.1-10.9,5.3-12.2-2.1c-2.2,0.1-0.4,4.3-1,6.1c-6.2-0.8-9.1,1.7-12.2,4c-3.1,1-1.8-2.3-2.1-4c-3.9,0.5-3.5,5.3-8.2,5.1c0.4-2.1-0.3-3.3-2.1-3.1c-2.6,5.2-11.2,4.4-16.3,7.2c-0.8-3.1,3.5-1.3,2.1-5.1c-7,6.9-21.9,6-32.7,9.1c-9-3.5-24.1,1.6-41.8,0c3.8-3.6,1.3-8.1-1-11.2c4-1.6,2.1,2.6,4,3.1c1.4-1,1.3-3.4,3.1-4c-0.5-3.3-5.7-1.7-6.1-5.1c3.4,0,6.8,0,10.1,0c1.3,4.7-3.4,3.4-2.1,8.2c3,1.3,2.3-8.5,4-2.1c2.2-0.1,0.4-4.3,1-6.1c3.1-1,10.4,2.2,10.1-2.1c2.2,4.4,3.6-1.8,9.1,0c0,3.4,0,6.8,0,10.1c-4.2,1.2,0.1-6.2-5.1-4c-1.4,0.4-0.8,2.6-1,4c7.8,5.3,7.3-6.4,13.3-6.1c0.8,3.1-3.5,1.3-2.1,5.1c0.4,2.3,6-0.5,4,4c3.9,1.6,0.3-4.6,4-3c-0.6,3.4,2.1,3.4,3.1,5.1c1.4-0.3,0.9-2.6,1-4c-0.3-1.4-2.6-0.9-4-1c-1.2-6.4,3.6-6.4,0-10.1c5.3-0.5,15.1-4.9,19.4,0c5.3-5.5,18.6-3.1,25.5-7.2c3.3-1.3,0.8,3.3,4,2.1c0.4,1.7-0.8,2-2.1,2.1c1.4,2.1,3.5-1,6.1,1c0.9-4-3.5-2.6-2.1-7.2c13.1-2.9,27.2-4.7,36.7-11.2c2.2-0.5,1.4,2,3,2.1c1.4-5.1,12.1-9.4,15.4-6.1c18.7-12.9,41-22.3,61.2-33.7c0-1.3,0-2.7,0-4c5.1,0.3,6.9-4.4,11.2-2.1c-0.7-1-2.3-1-2.1-3c14.6-6.5,20.7-21.5,36.7-26.5c0-1.3,0-2.7,0-4c1.6,1.2,2.5,2.9,4,4c-3.4-9.5,11.4-14.8,14.3-24.5c5.7,1,5.7-3.8,7.2-7.2c1.8-0.1,2.2,1.3,4,1c0.4-7.4,4-11.6,9.1-14.3c-0.7,3.4,2.1,3.4,3,5.1c2.6-2-3.3-4.2-3-7.2c4.3-5.9,9.4-11.1,13.3-17.3c0.9,3.3-0.9,3.9-2.1,5.1c1,1,2.1,2.1,3.1,3.1c0.8-8.1,2.5-15.1,5.1-21.5c5.2,1.8,4-2.7,7.2-3c1.3-3.3-3.3-0.8-2.1-4c22.5-34.6,35.3-78.9,45.9-125.3c-0.7-1-2.3-1-2.1-3.1c4.6-1.6,0.9-11.3,2.1-16.3c-4.6-0.8-6.1,1.3-10.1,1c1.2-4.2-3.5-2.6-4-5.1c-1.8-0.4-1.8,5.7,1,4c-13.3,7.2-29.4,11.4-46.8,14.3c-0.1-3.6-2.1-5.5-6.1-5.1c0.4,2.6,3.3,2.9,2.1,7.2c-16.5,2-33.8,13.5-50,9.1c-1.4,0.3-0.8,2.6-1,4c-62.3,17.6-126.1,33.6-188.5,51c-3.5,0.8-1.7-3.8-4-4c-2.2,0.1-0.4,4.3-1,6.1c-14.3,0.9-24.5,6.9-35.7,6.1c-0.5-4.3,7.8,0.3,5.1-6.1c3.3-0.9,3.9,0.9,5.1,2.1c2.3-0.4-0.5-6,4-4c-0.9-2.6-1.3-5.5-1-9.1c1.3,2.7,3.9,2.6,3.1-2.1c3.4-0.4,6.2-0.1,7.2,2.1c1.4-0.3,0.8-2.6,1-4c27.3-5.3,51.8-13.4,77.4-20.4c11.2-0.7,20-3.8,27.5-8.2c5.5,4,11.6-4.3,20.4-3c0.9,3.3-2.6,2.1-3.1,4c4.3,1.3,6-5.9,11.2-8.2c3-1.3,6.9,0.9,9.2-2.1c0.5,1.8-1.2,6,1,6.1c2.2-0.1,0.4-4.3,1-6.1c23.4-5.5,43.2-14.6,70.3-16.3c6.2-7.9,22.4-6.2,30.6-12.2c9.4,2.9,22-6.8,34.6-7.2c-0.8,5.9,4.6,5.6,6.1,9.1c2.6-4.3-6.2-6-6.1-11.2c4.8-1.4,3.9,2.9,6.1,4c2.2-0.1,0.4-4.3,1-6.1c5.1,2.5,9.8-4.3,10.1,0c9.5-3.9,24.1-9.6,33.7-7.2c1.3-3.3-3.3-0.8-2.1-4c2.3-0.8,7.9,1.8,7.2-2.1c12.4,1.2,31.8-7.4,45.8-11.2c1.3,3.3-3.3,0.8-2.1,4c4.4,0.7,3-4.4,5.1-6.1c21.9,2.3,37.7-16,54-9.1c3.1-2.2,4.7-9.5,0-11.2c-3,0,1.4,7.5-3.1,6.1c-0.5-22.8-16-40.9-11.2-62.2c3.6-1.6,0.7,3.5,3,3c3.6-1.8-1.8-2.9-1-5.1c1.2,0.1,1.8-0.3,2.1-1c0.1-2.2-3.6-0.5-5.1-1c-2.2,0.1-0.4,4.3-1,6.1c-9.6-19.6-12.2-46.2-20.4-67.3c-1.2-4.3,1.7-4.4,2.1-7.2c-0.3-1.4-2.6-0.8-4-1c-4.4-20.7-10.5-39.7-15.2-60.1c5.6,3.6,2.7-5.6,8.2-5.1c-2.7-0.7-4.4-2.3-5.1-5.1c-2.3,0.8-0.4,5.7-1,8.2c-7.3,2.2-2.2-7.9-7.2-8.2c0.4-2.2,5.5-0.8,6.1,0c2-1,0.3-5.9,3.1-6.1c-1-1-2.1-2.1-3.1-3.1c-2.7-0.8,0.8,4.8-2.1,4c-4.2,0.3-0.5-2.1-1-4c-6-1.6-5.3,3.5-9.1,4c0.5,3.3,3.5,3.9,4,7.2c-5.2,3.6-12.9,4.8-18.3,8.2c-4,1.7-0.4-4.4-3-4c-1.7,1.7-0.9,5.9-5.1,5.1c0-2.3,0-4.8,0-7.2c-1,0-2.1,0-3.1,0c-2.1,1.6-0.4,7.2-2.1,9.1c-38.6,8.6-73.7,20.7-113.1,28.5c0-2.3,0-4.8,0-7.2c-1.8-0.1-2.2,1.3-4,1c0.9,2.5,3.1,3.8,2.1,8.2c-69.4,18.3-139.4,36-206.9,56.1c-10.9-2.6-17.3,8.6-25.5,2.1c-1,2-2.1,4-3.1,6.1c-4.7-3.4-13.5,2.3-20.4,3c0-1.7,0-3.4,0-5.1c-2.1,0-4,0-6.1,0c1.7,3.9,1.7,1.2,0,5.1c-3.6-3.6-5.2,1.6-12.2,0c-2.2,0.1-0.4,4.3-1,6.1c-7.3-4,5.3-8.3,0-11.2c1.3,0,2.7,0,4,0c0-1.3,0-2.7,0-4c-3.1-0.8-1.2,3.5-5.1,2.1c-1.2,2.6-2.1,5.3-6.1,5.1c1.2-1.6,3.4-2.1,3.1-5.1c-2.6,1.8-4.8,4-9.1,4c4.7-0.3,2.6,6.2,8.2,5.1c0,2.1,0,4,0,6.1c-3.8-2-3.3-8.2-9.1-8.2c-0.8,3.6-4,4.7-6.1,7.2c1.6,2.9,2.9-3.1,7.2-1c0,1.3,0,2.7,0,4c-3.3-0.5-4.8,0.7-7.2,1c-1.4-3.6-7.7-2.5-8.2-7.2c-2.9,1,0.3,4.3,0,6.1c-2.5-2.6-4.8-5.3-5.1-10.1c-3.9-0.9-4.4,1.7-6.1,3c1.7,1.3,2.2,3.9,6.1,3.1c0,2.3,0,4.8,0,7.2c3.3,1.3,0.8-3.3,4-2.1c1.3,3.3-3.3,0.8-2.1,4c-69.4,17.3-137.7,35.7-204.9,55c-8.7,0.1-14.6,3.1-21.5,5.1c-2.2,0.5-2-1.4-2.1-3c-1.7,0-3.4,0-5.1,0c-1.4,3.9,2.9,2,2.1,5.1c-5.7-1.2-10.5,5.5-14.3,0c-3.4,7-16.4,8.3-22.4,4c-0.8,3.1,3.5,1.3,2.1,5.1c-4.7,1.3-1.7-5.1-7.2-3c0.7,1,2.3,1,2.1,3c-6.8,1.6-16.7,7.9-21.5,0c-2.7,0.9,1.4,3.3,0,6.1c-3.8,0-4,3.4-9.2,2.1c-0.1-1.6,0.5-3.9-1-4c-1.7,1-1.2,4.3-2.1,6.1c-6.8,0-11.2,2.3-17.3,3.1c-0.5-2.2,2-1.4,2.1-3.1c-3.3,0.5-5.2,2.2-6.1,5.1c-1.7,0.4-2-0.8-2.1-2.1c-1.4,0.3-0.9,2.6-1,4c-2.9-3-12.4-3-15.2,0c0-1.3,0-2.7,0-4c-3.1,0.5-3.9,3.6-6.1,5.1c1.7,3.3,2.2-3.1,6.1-1c0,1.3,0,2.7,0,4c-10.4-2.7-14.1,6.6-21.5,1c-3,0.7,1,2.2,0,4c-5.5,1.3-11.8,1.7-16.3,4c-0.9-3.3,0.9-3.9,2.1-5.1c-3-1.6-6.5-7.7-10.1-5.1c1.4,2.7,4.3,3.8,8.2,4c-2,2.7-2,7.5-6.1,8.2c-3.5,0.8-1.7-3.8-4-4c-1,2-2.1,4-3.1,6.1c-7.2-0.4-11.6,2-17.3,3c-0.5-1.4,1.2-5.2-1-5.1c-2.2,0.1-0.4,4.3-1,6.1c-0.9,3.3-1.3-1.8-1-3.1c-4.9,1.2-4.4,7.8-12.2,6.1c0-2.1,0-4,0-6.1c-2.7-0.4,0.9,5.7-3,4c0-1.3,0-2.7,0-4c-3.5,0.8-3.9-1.6-7.2-1c-3.6,3.3-1,9-1,14.3c1,0,2.1,0,3,0c2.3-0.4,0.4-5.1,1-7.2c4.2-1.4,3.3,2.2,6.1,2.1c-0.8,6.5,1.6,10,1,16.3c-0.9,0.1-0.9-0.4-1-1c-0.7,0-1.3,0-2.1,0c-0.8-3.1,3.5-1.2,2.1-5.1c-1.7-0.9-1.7-3.8-5.1-3c-1.4,0.3-0.9,2.6-1,4c-1.7,0-3.4,0-5.1,0c0.4-10.7-6.1-14.3-6.1-24.5c3.3-0.9,3.9,0.9,5.1,2.1c1.4-0.3,0.9-2.6,1-4c6.4,1.6,11.3-5.6,15.2,0c2-2.1,5.7-2.3,6.1-6.1c3.4-1,3.4,1.4,3.1,4c2.5-7.4,9.6-3.9,16.3-7.2c-0.9,4,3.5,2.6,2.1,7.2c1.3,0,2.7,0,4,0c0-1,0-2.1,0-3c0.8-2.7-4.8,0.8-4-2.1c1.2-3.9,9.5-8.1,12.2-4c1.4-0.3,0.8-2.6,1-4c2.2-0.5,1.4,2,3.1,2.1c11.3-7.3,29.9-7.4,42.8-13.3c4.8-14.8,4.3-31.6,7.2-46.8c2.7-14.1,8.2-25.8,9.2-39.8c1.3,0,2.7,0,4,0c-2.6-5.9,1.3-7.9,1-16.3c4.2-0.5,3.1,4.3,8.2,3c0.8,3.1-3.5,1.3-2.1,5.1c0.4,2.3,5.1,0.4,7.2,1c-2.7-6.6-2.7-8.6,0-15.4c-4.4-0.7-3,4.4-5.1,6.1c-2.9,0.1-2-3.4-6.1-2.1c-0.1-2.9,3.5-2,2.1-6.1c2.1,0,4,0,6.1,0c1.2-4.3-1.7-4.4-2.1-7.2c4.2,0.4,1.2-6.4,2.1-9.1c1.7,0,3.4,0,5.1,0c-1.3,3.8-3,7.3-5.1,10.1c5.5,3.5,4.9-7.9,9.2-9.2c0,2.1,0,4,0,6.1c2.7-1.7,4.2-4.7,4-9.1c2.3,1.4,3,4.4,5.1,6.1c-0.7,6.4-6.9,7.4-5.1,16.3c-4.6,1.4,0-6.1-3.1-6.1c-2.5,1.2-0.9,6.9,1,7.2c-10.7,30.4-21.2,61-22.4,101c14.7-3.3,26.9-9.1,42.8-11.2c-1.4,4.6,3.4,2.7,6.1,3c0.8-3.1-3.5-1.2-2.1-5.1c17.7-1.7,31.4-12.8,50-10.1c1.2-0.1,0.9-1.8,1-3.1c12.9-3.8,26.8-6.5,38.8-11.2c18.1-2.6,33.3-8.1,48.9-13.3c38.9-9.1,77.2-18.6,113.2-30.6c10.8,0.8,17.4-7.5,27.5-4c1.2-0.1,0.9-1.8,1-3c2.1,0.7,7-1.7,6.1,2.1c0.8-1.6,3.3-1.6,3.1-4c89.3-23.6,178.1-47.5,267-71.3c3.4-0.4,1.2,4.9,6.1,3.1c1.4-3.9-2.9-2-2.1-5.1c16.7-2.3,30.4-7.5,45.9-11.2c-4.4-5.5-7.8-12-12.2-17.3c4,0.4,6.1-1.4,6.1-5.1c-3.5,2.3-5.1,2.9-9.1,3.1c0-1.7,0-3.4,0-5.1c1.7,0,3.4,0,5.1,0c1.3-6.1-1.6-7.9-3-11.2c-3,0.8-3,3.4-5.1,0c-1.2,0.1-0.9,1.8-1,3c-3.3-1.4-3.4-0.3-7.2,0c5.9-4.7-10.5-1.4-6.1-11.2c-3.3-1.3-0.8,3.3-4,2.1c0.7-4.8-2.3-5.9-5.1-7.2c-1.7-4,4.4-0.4,4-3c-14.7-1.2-18.3-13.5-28.5-19.4c-1.3-3.3,3.3-0.8,2.1-4c-3.3-1.3-0.8,3.3-4,2.1c-9.1-2.6-3-13.5,0-18.3c0.8-2.7-4.8,0.8-4-2.1c5.5-5.2,14.4,3.1,15.4,9.1c-3.6-3.5-3.9,1.2-6.1-2.1c-3.6,3.1,3,4.4,1,9.1c2.2,0.1,0.5-3.6,1-5.1c23.7,0.1,26.2,21.3,41.8,29.5c0,2.3,0,4.8,0,7.2c3.1,0.8,3.8-1,6.1-1C779.7,254.1,783.1,255.5,784.4,258.9L784.4,258.9z M559.2,859.3c-3.3,1.3-0.8-3.3-4-2.1c1.6,5.6-2.7,5.5-2.1,10.1c1.3,0,2.7,0,4,0C556.2,863.1,558.2,861.8,559.2,859.3L559.2,859.3z M790.5,708.5c1.3,3.3-3.3,0.8-2.1,4c3.3,1.3,0.8-3.3,4-2.1c0,1.4,0.5,2.2,1,3c-0.1,3-3.9,2.2-3.1,6.1c5.2,0.5,2.7-6.8,9.1-5.1c-1.4-4.2,2.2-3.3,2.1-6.1C798.3,706.7,795.8,709.3,790.5,708.5L790.5,708.5z M509.2,381.2c0.4,3,4.4,2.3,6.1,4c-1.4-4.2,2.2-3.3,2.1-6.1C514.9,380.1,513.6,382.3,509.2,381.2L509.2,381.2z M762,257c4.2-1.4,3.3,2.2,6.1,2.1c-0.3-3.8-1.4-6.8-4-8.2C764.2,253.7,760.6,252.8,762,257L762,257z M769.2,254.9c0,1.3,0,2.7,0,4c4.3,1.6,9-5.2,4-6.1C774.2,255.9,771,254.6,769.2,254.9z M928.2,270.1c-0.8-2.7-2.2-4.6-6.1-4C922.8,268.8,924.3,270.6,928.2,270.1z M926.1,296.6c0.5-3.9-1.4-5.5-4-6.1C923.8,292.2,923.1,296.2,926.1,296.6z M839.4,296.6c2-1.2,4.7-1.4,5.1-4c-1.7,0-3.4,0-5.1,0C839.4,293.9,839.4,295.3,839.4,296.6z M769.2,309.9c4.7,1.3,3.4-3.4,8.2-2.1c0-1.3,0-2.7,0-4C772.3,303.5,770.9,306.9,769.2,309.9z M754.9,312.9c1-3.4-1.4-3.4-4-3.1C750.6,312.7,752.9,312.5,754.9,312.9z M939.4,358.8c2-1.2,4.7-1.4,5.1-4c-1,0-2.1,0-3.1,0C942.6,358.1,938.1,355.5,939.4,358.8L939.4,358.8z M944.4,372.1c4,0.7,1.2-5.6,2.1-8.2c-3.3,0.9-3.9-0.9-5.1-2.1C940.4,367.3,946.7,365.5,944.4,372.1z M967,439.4c0-1.7,0-3.4,0-5.1c-1,0-2.1,0-3.1,0C963.2,437.7,965.9,437.6,967,439.4z M973.1,439.4c-1.3,0-2.7,0-4,0c1.2,5.3-4,4-3.1,9.1c1.6,0.1,3.5-0.1,3.1,2.1c2.9,0.1,2-3.4,6.1-2.1c0-1.7,0-3.4,0-5.1c-4-1.7-0.4,4.4-3,4c-0.8-1.6-3.3-1.6-3.1-4c1.3,0,2.7,0,4,0C973.1,442.1,973.1,440.7,973.1,439.4L973.1,439.4z M973.1,463.8c2.6-1.2,4.2-3.3,4-7.2C974.4,457.7,973.9,461,973.1,463.8z M848.7,532.2c0-1.3,0-2.7,0-4c-1.4,0-2.7,0-4,0C843.9,531.5,845.2,532.9,848.7,532.2z M857.8,545.3c3.5-2,3.8-7.2,6.1-10.1c-2.1,0-4,0-6.1,0C857.8,538.5,857.8,541.9,857.8,545.3z M861.9,561.7c1.3,0,2.7,0,4,0c1.2-3.1-8.5-3.3-5.1-2.1C861.7,559.9,862.1,560.5,861.9,561.7L861.9,561.7z M555.1,603.5c1.3,0,2.7,0,4,0c-0.4-2.2-1.8-3.6-4-4C555.1,600.7,555.1,602,555.1,603.5z M541.8,610.6c0-1.7,0-3.4,0-5.1c-1.3,0-2.7,0-4,0C537.6,608.8,539.5,609.8,541.8,610.6z M801.8,697.3c1.3,0,2.7,0,4,0c-1.2-2-1.4-4.7-4-5.1C801.8,693.8,801.8,695.5,801.8,697.3z M709.1,801.3c0-1.3,0-2.7,0-4c-1,0-2.1,0-3.1,0C705.7,799.8,705.7,802.2,709.1,801.3z M686.5,818.6c2.2-0.4,3.6-1.8,4-4c-1.7-1.7-1-5.7-4-6.1c-1,4.4,1.2,5.7,2.1,8.2C687.5,816.6,686.3,816.7,686.5,818.6L686.5,818.6z M675.4,821.6c0,1.3,0,2.7,0,4c2.1,0,4,0,6.1,0c-0.9-2.3,2.3-7.5,0-5.1C681.3,822.9,677.2,821,675.4,821.6L675.4,821.6z M655,838.9c0-1.3,0-2.7,0-4c-1.3,0-2.7,0-4,0C650.1,838.3,651.5,839.6,655,838.9z M628.5,848.1c2.5-4.4-5.6-6.1-3.1-4C628.1,843.7,624.5,849.8,628.5,848.1z M611.2,848.1c1.6,0.1,3.8-0.4,4,1c0,1,0,2.1,0,3c2.9-0.9,4.7-2.9,5.1-6.1c-3.8,0-4-3.4-9.1-2.1C611.2,845.4,611.2,846.8,611.2,848.1L611.2,848.1z M495,870.5c0.3,1.8-1,5.1,2.1,4c0.4-4.3,5.5-4.2,7.2-7.2c-4.3,1.6,0.3-5.6-4-4C499.9,867.2,498.9,870.4,495,870.5L495,870.5z M509.2,873.6c-2-2-0.1-2.6,0-5.1c-1,0-2.1,0-3,0c0,1.3,0,2.7,0,4C508.9,870.7,508.1,877,509.2,873.6L509.2,873.6z M153.4,366c2.3-0.6,4.3-1.8,4-5.1C154.6,360.9,152.8,362.1,153.4,366z M146.4,388.4c0.3-3.3-1.7-4.4-4-5.1C142.1,386.6,143.9,387.7,146.4,388.4z M150.4,396.6c0-1.3,0-2.7,0-4c-1.3,0-2.7,0-4,0C145.6,395.9,146.9,397.4,150.4,396.6z M146.4,398.5c-2.9,0.1-2-3.4-6.1-2.1C138.1,400.7,145.7,400.4,146.4,398.5z M237.1,454.6c3.8,2.2,4.6-5.2,1-4C238.3,452.5,237,452.8,237.1,454.6z M129,460.7c1.3,0,2.7,0,4,0c-0.3-1.8,1-5.1-2.1-4C132.3,459.9,127.8,457.5,129,460.7L129,460.7z M180,468.9c0.4,2.5-4.7-0.5-3,3.1c4.9,0.5,7.5-1.3,7.2-6.1c-1.3,0-2.7,0-4,0C180,466.8,180,467.9,180,468.9L180,468.9z M161.6,479.1c0-1.3,0-2.7,0-4c-1.3,0-2.7,0-4,0C158,477.3,159.4,478.7,161.6,479.1z M84.2,501.6c0.9-3.6-4-1.4-6.1-2.1C77,503.1,82.1,500.9,84.2,501.6z M50.5,507.7c0.5-3.9-1.4-5.3-4-6.1C48.2,503.1,47.5,507.3,50.5,507.7z M59.7,507.7c0-1.3,0-2.7,0-4c-1.3,0-2.7,0-4,0C54.8,507.1,56.2,508.5,59.7,507.7z M35.3,512.8c0-3.6-2.1-5.5-6.1-5.1C30.6,509.9,30.6,513.7,35.3,512.8z"/>
<path d="M18,537.2c4.3,4,3.3-0.7,6.1-3.1c2,0.4,4.4,0.4,4,3.1c1-0.7,1-2.3,3.1-2.1c0-3.1,0-6.1,0-9.2c5.5,2.3-0.1,9.6,0,13.3c3.3,1.3,0.8-3.3,4-2.1c3.6,20.6,15.6,43.5,13.3,63.2c1.6,3.8,1.6-2.3,4-1c0.5,6.5,0.5,7.7,0,14.3c8.3,11.7,11.6,28.5,14.3,45.8c-5.6,3-3.5,13.4-9.2,16.3c0.1,1.2,1.8,0.9,3.1,1c0.9-4.9,6.5-5.1,5.1-12.2c0.8-1.8,1,0.7,1,2.1c0.3,1.4,2.6,0.8,4,1c0.6,14.8,9.6,24.6,6.1,37.7c1-0.6,1-2.3,3.1-2.1c0,2.3,0,4.8,0,7.2c-1.4,0.5-5.2-1.2-5.1,1c2.1,3.4,5.3-0.8,7.2-1c3.9,7.9-3,14.3,3.1,19.4c1.7-3.4,3.4-6.8,5.1-10.1c5.2-1.6,4.4,3.1,9.2,2.1c0.4-1.7-0.8-2-2.1-2.1c67.3-19.4,136.9-36.4,203.9-56.1c3.3-0.5,5.1,0.3,6.1,2.1c1.4-0.3,0.8-2.6,1-4c2.2,0.4,3.6,1.8,4,4c2.1-1.4-1-3.5,1-6.1c23.4-3.4,43.5-10.1,64.3-16.3c6.1,0.4,10.8-0.8,13.3-4c3.4,3.5,7-0.8,11.2-2.1c0.1,2.9-3.4,2-2.1,6.1c1.6-4.2,8.3-3.3,9.1-8.2c2.6,0.4,2.9,3.3,7.2,2.1c1.4-0.3,0.9-2.6,1-4c11.1,0.4,22.9-9,30.6-5.1c2.2-2.2,3.6-5.2,9.1-4c0.5,2.2-2,1.4-2.1,3c2,1,4,2.1,6.1,3c2.2-0.1,0.4-4.3,1-6.1c-1.7-0.4-2,0.8-2.1,2.1c-3.9-4.3,3.8-5.7,8.2-5.1c-4.3,2.3-0.3,3.8,4,3.1c-5.3-5.5,4.9,0,3.1-7.2c10.8,0,17.8-3.9,26.5-6.1c0.5,2.2-2,1.4-2.1,3c0.1,2.2,4.3,0.4,6.1,1c1.3-3.3-3.3-0.8-2.1-4c1.7,0.4,2-0.8,2.1-2.1c3,0.8,3.6,3.9,5.1,6.1c-2.3,1.4-6,1.4-5.1,6.1c-6.9,0.4-13.8,2.7-15.4-4c-3.1,2.3-7.4,3.4-7.2,9.1c-2.3-1.4-5.5-2.1-7.2-4c0.7,2.9-0.8,3.8-1,10.1c3.8-3.4,7.7-6.5,13.3-8.2c1.3,3.3-3.3,0.8-2.1,4c3.3,1.3,0.8-3.3,4-2.1c-1.6,4.3,5.6-0.3,4,4c-9.2-0.8-12.4,4.7-22.4,3.1c0.9-0.9,2.2-6.5,0-7.2c-3,2.7-2.6,8.8-6.1,11.2c-2.1-0.7-7,1.7-6.1-2.1c-3,0.7,0.9,2.2,0,4c-19.8,1.3-43.9,14.1-55,11.2c-1.4,0.3-0.9,2.6-1,4c-7.9-0.5-14.4,5.1-21.3,2.1c-1.2,0.1-0.9,1.8-1,3c-50,11.6-95.4,27.6-146.8,37.7c-0.4-2.3-2.2-3.3-3.1-5.1c-3.6,3,3.5,3.9,3.1,7.2c-11.4,1.4-20.4,5.3-30.6,8.2c6.8,11.6,15.5,21.2,24.5,30.6c1.2,3.3-1.6,2.5-2.1,4c-1.3,3.3,3.3,0.8,2.1,4c7.7-6.4,9,6.8,15.4,8.2c0.4,1.7-0.8,2-2.1,2.1c4.7-0.9,7.4,4.3,11.2,7.2c0.5,2.2-2,1.4-2.1,3.1c3.3,1.6,6.5,3,6.1,8.2c-5.5-0.4-5.6,4.6-6.1,9.1c-3.5-0.7-5.9-2.2-7.2-5.1c2.9-0.1,2,3.5,6.1,2.1c0.4-5.9-4.6-6.4-4-12.2c-1.7,0-3.4,0-5.1,0c-2.2,0.1-0.4,4.3-1,6.1c-7.2-0.4-6-9-13.3-9.1c-0.5-10.3-15.7-11.3-13.3-21.3c-0.1-2.2-2.6,1.3-5.1,0c-6.6-11.4-16.5-19.5-22.4-31.6c-39.2,8.1-73.9,20.6-113.2,28.5c0-4.2-4.8-9.4,0-12.2c-5.1-1.7-5.9-7.7-6.1-14.3c2.2-0.5,1.4,2,3,2.1c1.2-0.1,0.9-1.8,1-3c0.1-2.2-3.6-0.4-5.1-1c-8.8-31.9-17.2-64.4-26.5-95.8c-0.5-2.2,2-1.4,2.1-3.1c-4.3-4.3-9.2-17.4-6.1-22.4c-8.8-8.6-6.6-28-13.3-38.8c-1.7-4,4.4-0.4,4-3c-1-1.7-4.3-1.2-6.1-2.1C20.6,542.7,19.7,539.6,18,537.2L18,537.2z M48.5,608.5c2-0.4,4.4-0.4,4-3C50,605.2,47.5,605.2,48.5,608.5z M232.9,748.2c1.4,4.2-2.2,3.3-2.1,6.1c4.2,1.4,3.3-2.2,6.1-2.1c0-1.3,0-2.7,0-4C235.7,748.2,234.4,748.2,232.9,748.2z M24.1,545.3c1.3,0,2.7,0,4,0c-0.3-1.8,1-5.1-2.1-4C27.3,544.5,22.8,542.1,24.1,545.3L24.1,545.3z M35.3,567.8c0-2.1,0-4,0-6.1c-1.3,0-2.7,0-4,0C30.7,565.6,32.5,567,35.3,567.8z M42.4,594.2c1.3,0,2.7,0,4,0c0.5-3.9-1.4-5.3-4-6.1C42.4,590.2,42.4,592.3,42.4,594.2z M137.2,716.5c3.4,0.4,1.7-4.4,3-6.1c-1,0-2.1,0-3,0C137.2,712.5,137.2,714.6,137.2,716.5z M201.4,719.7c0.9-4-3.5-2.6-2.1-7.2c-2.7,0.8-4.6,2.2-4,6.1C199.2,715.6,197.8,717.9,201.4,719.7L201.4,719.7z M121.9,723.7c3.9,0.5,5.3-1.4,6.1-4C126.4,721.4,122.3,720.7,121.9,723.7z M101.5,729.8c4.6,0.1,5.6-3.3,5.1-8.2c-1.3,0-2.7,0-4,0C101.9,724.1,101.1,726.3,101.5,729.8L101.5,729.8z M213.7,731.9c-2.3-2.6,0.8-6.9-1-8.2C210.2,726.6,210.2,730.2,213.7,731.9z M93.3,732.9c1.3,0,2.7,0,4,0c0.3-3.3-1.7-4.4-4-5.1C93.3,729.6,93.3,731.3,93.3,732.9z M228.9,754.3c-0.7-2.1,1.7-7-2.1-6.1C227.5,750.3,225.3,755.3,228.9,754.3z M232.9,763.5c2.3-0.4,3.6-1.8,4-4c-3.3,1.3-0.8-3.3-4-2.1C232.9,759.4,232.9,761.4,232.9,763.5z"/>
<path d="M488.9,214c1.2,1.2,2.9,1.8,2.1,5.1c-14.3-1.2-30.2,6.2-40.7,2.1c-8.6,7-27.1,4.2-35.7,11.2c-2.1,0.4-3.3-0.3-3.1-2.1c-2.2,4.6-9.2,4.3-12.2,8.2c-31,6.8-50.7,24.7-74.4,38.8c0.3-4.6,3.9-5.6,4-10.1c-0.3-1.4-2.6-0.8-4-1c15.7-13.5,34.4-24.1,56.1-31.6c0.8-1.6,3.3-1.6,3.1-4c14.2-0.1,19.3-9.2,33.7-9.1c0.1,1.6-0.5,3.9,1,4c2.2-0.1,0.4-4.3,1-6.1c3.3,4.2,5.5-3,5.1,4c3.3,1.3,0.8-3.3,4-2.1c1.3-3.3-3.3-0.8-2.1-4c7.5-1.7,22-5.9,25.5,0c4.3,0.5,4.2-3.4,6.1-5.1c5.2-0.8-1.7,4.3,2.1,5.1c3.4,1,1.6-3.1,2.1-5.1c4.7-1.3,17.4-4.7,21.3,0c0.9-2.9,5.5-2,9.1-2.1c0,1.3,0,2.7,0,4c1,0,2.1,0,3.1,0c1.4-0.4,0.9-2.6,1-4c3.8,0,7.5,0,11.2,0c-0.4,2.2-1.8,3.6-4,4c0.9,2.1,4,2.1,4,5.1c-3.8,0-7.4,0-11.2,0C495.9,216,493.7,213.8,488.9,214L488.9,214z M464.4,217.1c4.4,0,6.6-2.2,8.2-5.1C470.5,214.4,465.6,214,464.4,217.1z"/>
<path d="M583.6,228.3c0.9-3.3,10.7-5.1,11.2,0c1-0.7,1-2.3,3.1-2.1c3,4.2,11.7,8.8,15.2,6.1c0,1.3,0,2.7,0,4c-1.3,0-2.7,0-4,0c-0.7,2.7,2.1,2,3,3.1c2.5,0.4-0.5-4.7,3-3.1c-0.4,1.7,0.8,2,2.1,2.1c-1.2,1.2-2.9,1.8-2.1,5.1c-6.9,0-12.2-1.3-13.3-7.2c3.3-1.3,0.8,3.3,4,2.1c-0.5-3.1-3.6-3.9-5.1-6.1c-2.2,0.1-0.4,4.3-1,6.1c-8.3-1.8-17.2-3.1-20.4-10.1c-4.8,4.8-8.3-1-15.2,0c0-3.8,0-7.4,0-11.2c4.6-1.6,3.1,3,7.2,2.1c-1.4,3.3-0.3,3.4,0,7.2C576.5,228.6,588.6,220.3,583.6,228.3L583.6,228.3z"/>
<path d="M633.6,245.6c7.8-1.7,7,5.2,13.3,5.1c-0.6,1.8-4.2,6-1,8.2c1-2,2.1-4,3.1-6.1c3.3-1.3,0.8,3.3,4,2.1c-2,3.5-2,2.6,0,6.1c-3.4-0.3-6.2-0.1-7.2,2.1c-3.5-1.8-6-4.8-10.1-6.1c0.1-3,3.1-3,4-5.1c-1.3-1.7-4-2.1-5.1-4c-2.9,1.6,3.1,2.9,1,7.2c-3.9-1.6-9-1.8-9.1-7.2c-2.9-0.1-2,3.4-6.1,2.1c0.1-1.8-1.3-2.2-1-4c1.7,0,3.4,0,5.1,0c1.6-4.6-3-3.1-2.1-7.2c4.6-0.1,5.5,3.4,10.1,3C632.4,243.4,633.8,243.7,633.6,245.6L633.6,245.6z"/>
<path d="M306.3,279.3c2.6,0.3,5.1,0.4,4-3.1c2.1-0.4,2.7,0.7,4,1c2.2,0.1,0.4-3.6,1-5.1c3.3-1.3,0.8,3.3,4,2.1c1.3-3.3-3.3-0.8-2.1-4c3.5,0.1,2.6-4.2,6.1-4c0.7,6.5-3.6,7.9-2.1,15.4c-6.9,2.6-9.5,9.6-17.3,11.2c-0.1,5.3-3.6,7.3-7.2,9.1c0-1-1.3-0.8-2.1-1c-0.1-3.8,4.9-2.6,4-7.2c-0.1-1.2-1.8-0.9-3-1c-1.2,4.6-5.1,9.4-1,13.3c-19.5,14.4-28.5,39.4-46.8,55c-0.9-3.3,0.9-3.9,2.1-5.1c-0.1-2.2-4.3-0.4-6.1-1c1.3-4.2,6-4.9,6.1-10.1c2.1-2.6,0.5,4,0,5.1c2.2-2.2,3.6-5.2,9.1-4c0-1,0-2.1,0-3.1c-0.3-1.4-2.6-0.8-4-1c-1.6-5.2,3.1-4.4,2.1-9.2c6.5,0.4,4.2-8.1,11.2-7.2c0-2.1,0-4,0-6.1c3.3-1.3,0.8,3.3,4,2.1c-6.4-7,5.9-7.7,5.1-15.2c5.2,1.4,8.1-12.2,10.1-4c2.3-0.4,0.4-5.1,1-7.2c4.7-1.2,4.8-6.8,10.1-7.2c1.7,1.7,0.8,6,1,9.1C304.1,292.7,306.7,287.4,306.3,279.3L306.3,279.3z"/>
<path d="M684.6,281.3c8.2-1.4,7.5,12.2,13.3,7.2c-0.9,4.2-1.6,8.7-5.1,10.1c0.5-5.3-4.3-5.3-8.2-6.1c0.8-2.7,2.2-4.6,6.1-4c-1.7-1.7-3.4-3.4-5.1-5.1c-2.2-0.1-0.5,3.6-1,5.1c-1.7,0-3.4,0-5.1,0c0-1,1.2-0.8,2.1-1C682.5,285.4,683.5,283.4,684.6,281.3L684.6,281.3z"/>
<path d="M240.1,372.1c1-4.4-1.2-5.6-2.1-8.2c2.2,0.5,2-1.4,2.1-3.1c3.5-0.4,5.7,0.4,8.2,1c0.1,5.3-3.3,4.3,0,8.2c-7.9,9.1-9.2,24.7-17.3,33.7c1,5.5-1.3,7.5-2.1,11.2c-3.3,0.9-1.4-3.4-4-3.1c-0.8,0.3-1,1-2.1,1c-2.7,2.5-0.4,8.5,1,10.1c-2.2-0.5-2,1.4-2.1,3c-2.1,0-4,0-6.1,0c3.5-21,13-35.9,19.4-54C236.7,372.1,238.4,372.1,240.1,372.1L240.1,372.1z M238.1,377.2c4,0.4,6.1-1.4,6.1-5.1C240.1,371.7,238.1,373.5,238.1,377.2z"/>
<path d="M675.4,509.7c-1.6,1.8-2.9,3.9-7.2,3C667.9,509,673.7,511.3,675.4,509.7z"/>
<path d="M399.1,528c-6.2-1.2-6.6,3.5-13.3,2.1C388.2,528.3,397.1,523.4,399.1,528z"/>
<path d="M731.4,659.6c4.9,4.9-0.3,10.1-1,15.4c-1.3,0-2.7,0-4,0c-0.7,8.2-8.7,8.8-9.2,17.3c-10.7,5.7-15.2,17.4-26.5,22.4c0,1.3,0,2.7,0,4c-7.5-1.7-8.6,11.4-14.3,5.1c-3.5,2,1.3,4,1,6.1c-7.5-2.2-6.9,4-11.2,5.1c-0.5-1.4,1.2-5.2-1-5.1c-0.8,3.6-2.2,6.6-8.2,5.1c-1.6,3.6,3.4,0.6,3,3c-8.2,10.8-23.3,14.7-33.7,23.4c-2.2,0.5-1.4-2-3-2.1c-2.1,6.2-12.4,9.2-18.3,8.2c-12.6,10.8-34.4,12.5-51.9,18.3c-2.2,0.5-1.4-2-3.1-2.1c-3.5,4.9-14.3,2.7-19.4,6.1c-0.1-1.6,0.5-3.9-1-4c-1.4,0.3-0.9,2.6-1,4c-16.3,0.1-28.6,1.4-39.8,2.1c-0.8-3.5,0.5-4.8,4-4c0-1,0-2.1,0-3.1c-1-1.7-4.7-0.8-5.1-3.1c-1.7,2.1-4.7,2.7-6.1,5.1c2.1,3.4,5.3-0.8,7.2-1c0.1,2.9-3.4,2-2.1,6.1c-5.9-2.7-13.7-3.5-18.3-2.1c0-1.3,0-2.7,0-4c-3.5-0.1-2.6,4.2-6.1,4c-3.5,0.8-1.7-3.8-4-4c-22.3,3.8-44-9.5-65.2-13.3c1.3-3.3-3.3-0.8-2.1-4c-3.3-1.3-0.8,3.3-4,2.1c-2.1-3.4-6.9-3.9-11.2-5.1c-0.4-3.4-0.1-6.2,2.1-7.2c-2.3-2.9-7.3,0.1-7.2,3.1c-2.5-0.9-3.8-3-8.2-2.1c0.9-2.9-1.4-2.6-1-5.1c-12-0.3-18.3-6.1-23.4-13.3c-1,0.7-1,2.3-3,2.1c-0.9-2.5-3-3.8-2.1-8.2c-1.3,0-2.7,0-4,0c-1.3,3.3,3.3,0.8,2.1,4c-3.8-3-8.6-5.1-11.2-9.1c1.7,0,3.4,0,5.1,0c-0.7-2.5-1.4-4.7-1-8.2c-2.7,1.4-3.8,4.3-4,8.2c-2.9,0.1-2-3.5-6.1-2.1c-1.3-4.7,3.4-3.4,2.1-8.2c-3.9-0.8-1.2,4.9-5.1,4c1.3-3.3-3.3-0.8-2.1-4c5.2,0.1,4.3-2.7,5.1-5.1c13,9.4,26.4,18.3,39.7,27.5c0.1,2.9-3.4,2-2.1,6.1c2.3-0.7,4.3-1.8,4-5.1c12.5,2.5,16.8,13.1,30.6,14.3c1.7,4-4.4,0.4-4,3c5.1,2,7.5-2.3,13.3,1c0.9,3.3-0.9,3.9-2.1,5.1c0.1,1.2,1.8,0.9,3.1,1c2.7,0.8-0.8-4.8,2.1-4c5.6,2,11.1,3.9,17.3,5.1c0.5,2.2-2,1.4-2.1,3.1c0.1,1.2,1.8,0.9,3.1,1c1.4-0.3,0.9-2.6,1-4c4.8,2.6,11.3,3.6,14.3,8.2c1.4-0.3,0.8-2.6,1-4c4.7,1.8,9,3.9,15.4,4c-0.3,1.8,1,5.1-2.1,4c0.6,1,2.3,1,2.1,3c0.8-2.2,0.7-5.3,4-7.2c3.8,1.7,8.2,2.6,14.3,2.1c0,1.7,0,3.4,0,5.1c9-4.4,18.1-2.5,30.6-3c-0.6,1-2.3,1-2.1,3c2.7,0.6,2-2.1,3-3c17.6,2.5,35-5.5,46.8-2.1c2.1-1.8,6.8-6.6,9.1-2.1c4.9-4.9,15.1-4.6,21.5-8.2c4-1.7,0.4,4.4,3.1,4c1.2-5.5,12.8-10.7,16.3-7.2c1.4-0.3,0.9-2.6,1-4c16.9-2.5,28.4-15.7,42.8-17.3c4-5.6,11.6-12.8,19.4-11.2c-0.5-0.8-1-1.7-1-3c23.9-15.1,42.7-35.5,60.1-57.1c3.5-0.1,7.3-0.5,8.2,2.1c2.3-3.1,0.4-10.5,1-15.4c19.5-26,34-57,42.8-93.8c6,1.6,5.7-3.1,11.2-2.1c-8.5,34.7-22.1,64.2-36.7,92.8C739.6,657.5,737.9,661,731.4,659.6L731.4,659.6z M688.6,712.5c-3,0.4-2.3,4.4-4,6.1c1.3,0,2.7,0,4,0C688.6,716.6,688.6,714.6,688.6,712.5z M681.5,718.6c-2.3,0-3,1.8-6.1,1c0.4,3,4.4,2.3,6.1,4C681.5,722,681.5,720.3,681.5,718.6L681.5,718.6z M655,741c-0.7-2.1,1.7-7-2.1-6.1C653.6,737.1,651.3,742.1,655,741z M479.6,788c0-1.3,0-2.7,0-4c-1.3,0-2.7,0-4,0C474.8,787.3,476.1,788.8,479.6,788z"/>
<path d="M306.3,717.6c1.6,3.8,1.6-2.3,4-1c0.1,3.1-3.1,3-6.1,3.1c0.4-2.1-0.3-3.3-2.1-3.1c-0.5-2.2,2-1.4,2.1-3c0.3-1.8-5.7-1.8-4,1c-3-0.6,0.9-2.2,0-4c-1,0.7-1,2.3-3.1,2.1c-3.8-6.5-11.6-8.8-13.3-17.3c5.1,0.3,9-2.3,13.3,0c0,2.7,0,5.5,0,8.2c3.9,1.4,2-2.9,5.1-2.1c0.4,2.2,1.8,3.6,4,4c0,2.3,0,4.8,0,7.2c4.3,1.6-0.3-5.6,4-4c0,2.1,0,4,0,6.1C307.9,714.3,308,716.8,306.3,717.6L306.3,717.6z"/>
<path d="M264.6,774.7c-3.8,1.6-3.6,6.5-1,9.1c-1.3,0-2.7,0-4,0c0,1.7,0,3.4,0,5.1c0.4,2.3,6-0.5,4,4c4.2-0.9,3.1-7,5.1-10.1c-0.3-1.4-2.6-0.9-4-1c1.6-0.8,1.6-3.3,4-3.1c-1.4,3.9,2.9,2,2.1,5.1c3.1,0.8,1.3-3.5,5.1-2.1c-2.2,6.4,6.4,1.8,4,8.2c9.4,1.8,20.8,6.1,19.4,15.2c2.3,1.3,4.4,3.1,6.1,5.1c1.6-1.2,2.5-3,4-4c6.9,2.2,10.7,7.7,17.3,10.1c1.2,4.3-1.7,4.4-2.1,7.2c2.3-0.7,4.3-1.8,4-5.1c8.2,0.4,12.4,4.6,17.3,8.2c1.4,3.9-2.7,2-2.1,5.1c0.1,1.2,1.8,0.9,3.1,1c2.2,0.1,0.5-3.6,1-5.1c1.2,4.7,4,1.3,9.1,2.1c-2.2,5.2,5.2,0.9,4,5.1c1,0,0.8-1.3,1-2.1c15.1,6,29.8,12.4,47.9,15.2c-0.1,1.8,1.3,2.2,1,4c2.5-0.9,3.8-3,8.2-2.1c0,2.3,0,4.8,0,7.2c-1.3,0-2.7,0-4,0c-0.1,2.9,3.4,2,2.1,6.1c-4,1.7-0.4-4.4-3-4c-0.8,2.9-3.5,4-3.1,8.2c-8.5-1.8-15.5-4.9-24.5-6.1c0-2.3-1.8-3-1-6.1c-2.1,0-4,0-6.1,0c0.9-4.3-1.3-5.6-3.1-7.2c-0.8,2.6-3,3.9-3.1,7.2c-6,0.3-7.2-4.3-14.3-3.1c-0.9-2.5-3-3.8-2.1-8.2c2.2-0.5,1.4,2,3,2.1c3.6-4.7-1.6-9.2-4-11.2c-1,2-2.1,4-3.1,6.1c-3.3,1.3-0.8-3.3-4-2.1c0.5,3.9,5.6,3.3,4,9.1c-7.7-3.5-15.6-6.8-24.5-9.1c0.8-4.4-0.8-6.6-3-8.2c-3.5,2,1.3,4,1,6.1c-3.4-5.3-6.5-8.2-14.3-7.2c-0.3-3.9,0.4-7,5.1-6.1c0.1-2.6-2.3-2.5-3-4c-4.3,6.1-10.4-6-13.3,2.1c-13.1-5.9-22.9-15.1-34.6-22.4c0-2.1,0-4,0-6.1c-3.1-1-1.8,2.2-2.1,4c-3.4-2.7-5.2-7-11.2-7.2c-0.4-4.8,0-8.8,2.1-11.2c2.2-0.5,1.4,2,3.1,2.1c3.8-1.6-2.3-1.6-1-4c4.2-1.3,7.8-6.5,9.1,0C264.9,777.1,264.7,775.9,264.6,774.7L264.6,774.7z M313.5,818.6c1.3,0,2.7,0,4,0c-0.4-2.2-1.8-3.6-4-4C313.5,815.8,313.5,817.1,313.5,818.6z M334.9,827.7c0,1.7,0,3.4,0,5.1c3.8,0.7,1.8-4.4,4-5.1c1.6-0.1,3.5,0.1,3.1-2.1C337.6,824.2,339,828.7,334.9,827.7L334.9,827.7z M383.9,846c-0.1,2.6,2.3,2.5,3.1,4c0.1-1.2,0.3-2.5,2.1-2.1c0.1-2.6-2.3-2.5-3.1-4C385.8,845.2,385.6,846.4,383.9,846z M399.1,861.4c0.4-4.7,2.6-11.4-2.1-13.3C396.1,852.7,392.3,860.2,399.1,861.4z"/>
<path d="M424.6,852.1c13.4,3.5,3.8,1,0,6.1c2.9,0.8,4,3.5,8.2,3c-1.3,2.3-2.9,4.7-2.1,9.1c-6.1,1.4-6.1-3.4-12.2-2.1c-2-0.7,4-2,5.1-3.1C422.8,859.9,424.9,857.2,424.6,852.1L424.6,852.1z"/>
<path d="M481.7,868.5c-1,3.1-6.2,2-4,8.2c-1.3,0-2.7,0-4,0C473.3,871.7,478.7,867,481.7,868.5L481.7,868.5z"/>
<path d="M473.5,863.3c-0.4,5.1,1,12-3.1,13.3c0-2.1,0-4,0-6.1c-2.1,6.4-13.5,3.5-21.5,4c1.2-2.9,3.3-4.9,6.1-6.1c0.1,1.6-0.5,3.9,1,4c3.3-7.7-9.1-3.6-14.3-4c-1.3,3.3,3.3,0.8,2.1,4c-6.4,1.3-7.2-3-11.2-4c5.1-3,0.4-9.5,3.1-14.3c2.7,1,6.2,1.2,10.1,1c0.3,1.8-1,5.1,2.1,4c3-0.7-1-2.2,0-4c2.9,0.9,6.1,1.3,7.2,4c7.9-2.9,14.2-1.3,22.4,0c-2,3.5-2,2.6,0,6.1C474.3,866.7,476.9,862.2,473.5,863.3L473.5,863.3z M464.4,863.3c-0.4-2.2-1.8-3.6-4-4c-0.8,1.6-3.3,1.6-3,4C460.4,861.2,461.2,861.2,464.4,863.3L464.4,863.3z"/>
<path d="M655,257c3.1-0.8,1.3,3.5,5.1,2.1c0,1.3,0,2.7,0,4c6.2-1.6,6.8,2.7,11.2,3c0,2.1,0,4,0,6.1c-3.9-1.4-2,2.9-5.1,2.1c-2.5-0.9-3.8-3-8.2-2.1c-1.3-1.7,0.4-6.5-3.1-6.1c-0.9-3.3,3.4-1.4,3.1-4C656.9,260.5,653.6,261,655,257L655,257z"/></g>
</svg>
