<?xml version="1.0" encoding="utf-8"?>
<!-- Generator: Adobe Illustrator 27.3.1, SVG Export Plug-In . SVG Version: 6.00 Build 0)  -->
<svg version="1.1" id="Lag_1" xmlns="http://www.w3.org/2000/svg" xmlns:xlink="http://www.w3.org/1999/xlink" x="0px" y="0px"
	 viewBox="0 0 1196.83 190.98" style="enable-background:new 0 0 1196.83 190.98;" xml:space="preserve">
<style type="text/css">
	.st0{fill:none;stroke:#7F60A2;stroke-width:2.8346;stroke-miterlimit:10;}
</style>
<path class="st0" d="M661.35,110.07c5.74-9.29,9.01-19.97,9.01-31.35c0-35.69-32.21-64.63-71.95-64.63s-71.95,28.94-71.95,64.63
	c0,11.38,3.27,22.06,9.01,31.35c-11.17,0.79-19.97,9.47-19.97,20.09c0,11.12,9.69,20.14,21.64,20.14c0.36,0,0.71-0.01,1.06-0.02
	v0.02c0,11.13,13.71,20.15,30.63,20.15c4.73,0,9.21-0.71,13.21-1.97c3.65,5.09,9.62,8.41,16.37,8.41s12.72-3.32,16.37-8.41
	c4,1.26,8.48,1.97,13.21,1.97c16.92,0,30.63-9.02,30.63-20.15v-0.02c0.35,0.01,0.7,0.02,1.06,0.02c11.95,0,21.64-9.02,21.64-20.14
	C681.33,119.54,672.52,110.86,661.35,110.07z M598.41,126.49c-16.34,0-29.58-11.42-29.58-25.51c0-14.09,13.24-25.51,29.58-25.51
	c16.34,0,29.58,11.42,29.58,25.51C627.99,115.07,614.76,126.49,598.41,126.49z M625.88,124.45c9.54-6.92,15.61-17.41,15.61-29.13
	c0-20.87-19.28-37.79-43.07-37.79c-23.79,0-43.07,16.92-43.07,37.79c0,11.72,6.07,22.21,15.61,29.13
	c-18.12-8.07-30.43-23.86-30.43-42.02c0-26.36,25.92-47.73,57.89-47.73c31.97,0,57.89,21.37,57.89,47.73
	C656.3,100.59,643.99,116.38,625.88,124.45z"/>
</svg>
